PathFileType	4	(X/Y/Z)	T1_P1_NoVision_NoMovement_0_0-649.trc
DataRate	CameraRate	NumFrames	NumMarkers	Units	OrigDataRate	OrigDataStartFrame	OrigNumFrames
60	60	4	27	m	60	567	649
Frame#	Time	RHip			RKnee			RAnkle			RBigToe			RSmallToe			RHeel			LHip			LKnee			LAnkle			LBigToe			LSmallToe			LHeel			Neck			Head			Nose			RShoulder			RElbow			RWrist			RThumb			RIndex			RPinky			LShoulder			LElbow			LWrist			LThumb			LIndex			LPinky		
		X1	Y1	Z1	X2	Y2	Z2	X3	Y3	Z3	X4	Y4	Z4	X5	Y5	Z5	X6	Y6	Z6	X7	Y7	Z7	X8	Y8	Z8	X9	Y9	Z9	X10	Y10	Z10	X11	Y11	Z11	X12	Y12	Z12	X13	Y13	Z13	X14	Y14	Z14	X15	Y15	Z15	X16	Y16	Z16	X17	Y17	Z17	X18	Y18	Z18	X19	Y19	Z19	X20	Y20	Z20	X21	Y21	Z21	X22	Y22	Z22	X23	Y23	Z23	X24	Y24	Z24	X25	Y25	Z25	X26	Y26	Z26	X27	Y27	Z27
568	9.466666666666669	-69.14521219209352	3836.536808862656	-524.6138264927098	295.3842976651371	3978.691874042937	-519.0350901423384	636.0626126564893	4143.755577476826	-530.2876726324176	725.3463253603867	4011.4346976715783	-502.7790970627999	732.3013414353053	4058.9237900783337	-597.5213492622274	661.5279644312997	4175.309855803761	-517.9688812188091	-105.29834628577859	3909.8903446220356	-341.1988088670046	260.7516114308164	4026.5814744402132	-336.0484368139231	603.8621838355516	4253.430405916524	-358.6873939908338	679.8264487714933	4133.720218845831	-236.0454404116084	660.7490941794418	4223.002298070492	-223.00314424332237	634.873035273406	4295.942972276314	-386.2124648535994	-622.1758091570334	3676.7424729330473	-450.52456191350694	-878.5594875053698	3477.183365518855	-360.5193442100835	-697.3872485388624	3505.3547108322523	-307.85456786606386	-556.4015804557492	3607.9555373269395	-562.9641533493291	-283.2362525473909	3726.391284097065	-661.6589153928381	-33.51609471260103	3732.619646182613	-586.9436987311742	80.31616735777082	3769.3195227486053	-549.1702172618785	103.44170093295642	3778.5533413975354	-558.9066302372102	98.45728976806919	3787.7971906492817	-584.3083539330157	-611.770070167092	3796.9794948899753	-337.8661813041885	-380.5062586190601	3965.00254034663	-289.85206186486295	-135.49871884630826	3939.815787972605	-202.95615706333646	-16.55339036990164	3966.5591905562846	-214.6264937673004	7.841204472381493	3960.008841300042	-197.5826109090333	-12.47705712032026	4001.478289816009	-195.24682330738403
569	9.483333333333333	-68.41013619298135	3836.4166787519434	-524.2333073110576	295.93010552892736	3984.0779197284583	-522.9837515812114	632.5699169052589	4134.32640282701	-528.6860419096015	724.457260605293	4011.6545871558446	-502.97724662717997	733.5940475829445	4063.968457703143	-601.267363143618	660.1167422049228	4175.173955057289	-518.0797612043901	-106.09298004226417	3909.3205210699475	-340.9628569895835	260.7345797685186	4026.5940658974596	-336.0536357446634	603.7783749385598	4253.206921751013	-358.5673484176778	679.3259072709553	4133.474923709354	-235.95635184740001	662.3760556239808	4231.499896686135	-224.2235528081934	634.3073074388827	4295.603120732679	-385.9749803944808	-622.2339502187874	3676.682760995957	-450.5093512791754	-879.0231033854802	3477.2596980511107	-361.4084175512692	-696.5867943461144	3500.192923567256	-304.1535496868581	-556.3910406668751	3607.9306586860994	-562.9750253407494	-284.213614823768	3723.896883793159	-659.8294536085364	-33.43922627719057	3723.7002633499196	-584.7722952161972	81.4408476523029	3771.4156727243367	-550.2897470068591	102.8683204589079	3778.568643682255	-558.9916805782846	98.49239378816225	3789.3481165561443	-585.2108677751869	-611.7577830986847	3796.897409505072	-337.80525663104476	-381.6025618280372	3964.2158270386244	-289.66385633712497	-133.75492476367228	3937.097248466997	-200.85143403653697	-14.648669063248995	3968.129188106498	-215.26091498618362	9.823058268659702	3961.71784535765	-198.19521629291125	-10.961047024518825	4002.6072526923936	-195.72001051808206
570	9.5	-67.13080074307067	3836.608741252487	-523.8620130396118	297.2888415038814	3991.7902224804398	-529.3179092277675	630.430963755908	4125.699230409867	-527.0101812915713	723.5696053097697	4011.5610368462508	-503.24042023465176	735.184921576852	4069.518760576188	-605.2302529522874	660.0471116770211	4174.968499498194	-518.0706840381811	-106.47070635870375	3909.0289106391438	-340.8339691226908	260.71874902884275	4026.6159930403414	-336.0615570549	603.6815701788762	4252.953829357746	-358.4901701387291	679.166713256961	4133.758587242116	-236.44480369162693	662.0903618210937	4234.030409805871	-224.77329088067734	633.6223564150839	4294.128036044189	-385.5740889659717	-622.3101922684891	3676.6306656537954	-450.4837702213635	-880.0040422977393	3477.318982088871	-362.85662426855134	-696.3176425530809	3498.1872122377467	-302.2297732585887	-556.3937628961258	3607.9044111729236	-562.9551841915464	-284.5374452706528	3720.3012515423447	-657.5588015708653	-33.05300526466175	3716.2589092891812	-583.4924152577352	83.58135080253561	3774.7026968513983	-552.1149440694518	102.81723040426216	3778.617227320781	-559.0609764911707	97.92060029615764	3787.0257118484747	-583.696571818769	-611.740441536799	3796.8662708924385	-337.7476765300881	-381.9774348591141	3961.68448866849	-288.12929002117903	-132.89225697597888	3933.1422384329117	-198.11837711918778	-13.279529631139127	3968.824401119433	-215.45932291159662	11.173898247948966	3964.8727083731455	-198.93905600000156	-10.403742110172592	4001.097772241173	-194.6960141372775
571	9.516666666666667	-66.97830827446003	3836.551854501938	-523.7336393139959	299.22682669266226	3998.445788031476	-535.6870521356124	631.0381527310651	4122.148890360395	-526.0036253340096	722.7357938468476	4011.0982239221926	-503.28917974571317	735.9711527132364	4071.5978824638746	-606.5953653546275	661.341723874785	4174.772516170624	-517.9291097682764	-105.9843616276054	3909.3509718061787	-340.9498396817147	260.7342634901757	4026.6716176991895	-336.0794644948248	603.6601047539946	4252.962793810682	-358.5084319576606	680.695018395704	4136.825296493154	-238.0567046308558	660.7334088139345	4231.234756848267	-224.6160065787951	633.5562717470946	4290.662859765876	-384.86397566409227	-622.3765883504784	3676.597650662025	-450.44364120283575	-881.1483667845688	3477.045123598913	-363.03741945219883	-696.6363281993031	3499.683913734949	-302.0782420428104	-556.4093388018613	3607.880376657002	-562.9072338615557	-284.42244730561185	3718.629669847342	-657.6805155533756	-32.75252395610922	3713.0768925146776	-583.5284950791054	85.03087862542904	3775.4356670768184	-552.108426088681	102.95159054866961	3778.624242722528	-559.071749846331	97.03887663885122	3783.050065796268	-581.7434380268433	-611.7128058164556	3796.8745296474763	-337.6883059899342	-381.0198664131009	3957.4545382694914	-285.11675230309055	-133.27982643303224	3930.3521515634116	-196.39255489650571	-12.935327475099923	3968.1751463141086	-214.99692058638124	11.664917677103979	3969.777721755532	-199.79966143785055	-10.627550473308046	3996.0874490454116	-191.53672652138854
